<svg viewBox="0 0 140 100" xmlns="http://www.w3.org/2000/svg">
  <g stroke="#9c27b0" stroke-width="0.9" fill="#ce93d8">
    <!-- Input layer -->
    <circle cx="20" cy="20" r="3"/>
    <circle cx="20" cy="50" r="3"/>
    <circle cx="20" cy="80" r="3"/>

    <!-- Hidden layer -->
    <circle cx="70" cy="15" r="3"/>
    <circle cx="70" cy="35" r="3"/>
    <circle cx="70" cy="55" r="3"/>
    <circle cx="70" cy="75" r="3"/>
    <circle cx="70" cy="95" r="3"/>

    <!-- Output layer -->
    <circle cx="120" cy="35" r="3"/>
    <circle cx="120" cy="65" r="3"/>

    <!-- Connections: Input -> Hidden -->
    <line x1="20" y1="20" x2="70" y2="15"/>
    <line x1="20" y1="20" x2="70" y2="35"/>
    <line x1="20" y1="20" x2="70" y2="55"/>
    <line x1="20" y1="20" x2="70" y2="75"/>
    <line x1="20" y1="20" x2="70" y2="95"/>

    <line x1="20" y1="50" x2="70" y2="15"/>
    <line x1="20" y1="50" x2="70" y2="35"/>
    <line x1="20" y1="50" x2="70" y2="55"/>
    <line x1="20" y1="50" x2="70" y2="75"/>
    <line x1="20" y1="50" x2="70" y2="95"/>

    <line x1="20" y1="80" x2="70" y2="15"/>
    <line x1="20" y1="80" x2="70" y2="35"/>
    <line x1="20" y1="80" x2="70" y2="55"/>
    <line x1="20" y1="80" x2="70" y2="75"/>
    <line x1="20" y1="80" x2="70" y2="95"/>

    <!-- Connections: Hidden -> Output -->
    <line x1="70" y1="15" x2="120" y2="35"/>
    <line x1="70" y1="15" x2="120" y2="65"/>
    <line x1="70" y1="35" x2="120" y2="35"/>
    <line x1="70" y1="35" x2="120" y2="65"/>
    <line x1="70" y1="55" x2="120" y2="35"/>
    <line x1="70" y1="55" x2="120" y2="65"/>
    <line x1="70" y1="75" x2="120" y2="35"/>
    <line x1="70" y1="75" x2="120" y2="65"/>
    <line x1="70" y1="95" x2="120" y2="35"/>
    <line x1="70" y1="95" x2="120" y2="65"/>
  </g>
</svg>
